HIERARCHY
ROOT Hips
{
	OFFSET 0.00000 0.00000 0.00000
	CHANNELS 6 Xposition Yposition Zposition Zrotation Yrotation Xrotation 
	JOINT LHipJoint
	{
		OFFSET 0 0 0
		CHANNELS 3 Zrotation Yrotation Xrotation
		JOINT LeftUpLeg
		{
			OFFSET 1.28366 -1.58472 0.87544
			CHANNELS 3 Zrotation Yrotation Xrotation
			JOINT LeftLeg
			{
				OFFSET 2.18587 -6.00562 0.00000
				CHANNELS 3 Zrotation Yrotation Xrotation
				JOINT LeftFoot
				{
					OFFSET 2.39085 -6.56880 0.00000
					CHANNELS 3 Zrotation Yrotation Xrotation
					JOINT LeftToeBase
					{
						OFFSET 0.12003 -0.32979 2.03101
						CHANNELS 3 Zrotation Yrotation Xrotation
						End Site
						{
							OFFSET 0.00000 -0.00000 1.04074
						}
					}
				}
			}
		}
	}
	JOINT RHipJoint
	{
		OFFSET 0 0 0
		CHANNELS 3 Zrotation Yrotation Xrotation
		JOINT RightUpLeg
		{
			OFFSET -1.21795 -1.58472 0.87544
			CHANNELS 3 Zrotation Yrotation Xrotation
			JOINT RightLeg
			{
				OFFSET -2.22714 -6.11902 0.00000
				CHANNELS 3 Zrotation Yrotation Xrotation
				JOINT RightFoot
				{
					OFFSET -2.40306 -6.60235 0.00000
					CHANNELS 3 Zrotation Yrotation Xrotation
					JOINT RightToeBase
					{
						OFFSET -0.15519 -0.42640 1.91430
						CHANNELS 3 Zrotation Yrotation Xrotation
						End Site
						{
							OFFSET -0.00000 -0.00000 0.99082
						}
					}
				}
			}
		}
	}
	JOINT LowerBack
	{
		OFFSET 0 0 0
		CHANNELS 3 Zrotation Yrotation Xrotation
		JOINT Spine
		{
			OFFSET 0.01180 1.76430 -0.06387
			CHANNELS 3 Zrotation Yrotation Xrotation
			JOINT Spine1
			{
				OFFSET -0.00388 1.74651 0.09536
				CHANNELS 3 Zrotation Yrotation Xrotation
				JOINT Neck
				{
					OFFSET 0 0 0
					CHANNELS 3 Zrotation Yrotation Xrotation
					JOINT Neck1
					{
						OFFSET 0.04111 1.46174 0.14397
						CHANNELS 3 Zrotation Yrotation Xrotation
						JOINT Head
						{
							OFFSET 0.00502 1.44580 -0.31711
							CHANNELS 3 Zrotation Yrotation Xrotation
							End Site
							{
								OFFSET -0.00395 1.49251 -0.12327
							}
						}
					}
				}
				JOINT LeftShoulder
				{
					OFFSET 0 0 0
					CHANNELS 3 Zrotation Yrotation Xrotation
					JOINT LeftArm
					{
						OFFSET 2.70917 1.34870 -0.15417
						CHANNELS 3 Zrotation Yrotation Xrotation
						JOINT LeftForeArm
						{
							OFFSET 4.46610 -0.00000 -0.00000
							CHANNELS 3 Zrotation Yrotation Xrotation
							JOINT LeftHand
							{
								OFFSET 3.41414 -0.00000 0.00000
								CHANNELS 3 Zrotation Yrotation Xrotation
								JOINT LeftFingerBase
								{
									OFFSET 0 0 0
									CHANNELS 3 Zrotation Yrotation Xrotation
									JOINT LeftHandIndex1
									{
										OFFSET 0.32830 -0.00000 0.00000
										CHANNELS 3 Zrotation Yrotation Xrotation
										End Site
										{
											OFFSET 0.26468 -0.00000 0.00000
										}
									}
								}
								JOINT LThumb
								{
									OFFSET 0 0 0
									CHANNELS 3 Zrotation Yrotation Xrotation
									End Site
									{
										OFFSET 0.26872 -0.00000 0.26872
									}
								}
							}
						}
					}
				}
				JOINT RightShoulder
				{
					OFFSET 0 0 0
					CHANNELS 3 Zrotation Yrotation Xrotation
					JOINT RightArm
					{
						OFFSET -3.06316 1.13725 -0.10883
						CHANNELS 3 Zrotation Yrotation Xrotation
						JOINT RightForeArm
						{
							OFFSET -4.40431 -0.00000 0.00000
							CHANNELS 3 Zrotation Yrotation Xrotation
							JOINT RightHand
							{
								OFFSET -3.04688 -0.00000 0.00000
								CHANNELS 3 Zrotation Yrotation Xrotation
								JOINT RightFingerBase
								{
									OFFSET 0 0 0
									CHANNELS 3 Zrotation Yrotation Xrotation
									JOINT RightHandIndex1
									{
										OFFSET -0.50049 -0.00000 0.00000
										CHANNELS 3 Zrotation Yrotation Xrotation
										End Site
										{
											OFFSET -0.40351 -0.00000 0.00000
										}
									}
								}
								JOINT RThumb
								{
									OFFSET 0 0 0
									CHANNELS 3 Zrotation Yrotation Xrotation
									End Site
									{
										OFFSET -0.40967 -0.00000 0.40967
									}
								}
							}
						}
					}
				}
			}
		}
	}
}
MOTION
Frames: 14
Frame Time: 0.00609756
0.00 0.00 0.00 -177.4640 5.7744 -172.1060 0.0000 0.0000 0.0000 -4.8848 8.0419 -19.8144 7.9431 16.0773 52.3576 1.4915 4.7221 -25.1907 0.5357 -4.6899 -13.0262 0.0000 0.0000 0.0000 20.6989 -10.1320 -46.9368 -8.5504 -16.5095 54.5219 -1.0341 -0.2768 -19.3272 -0.2007 -2.8847 7.9578 2.0115 -0.8339 6.7458 3.3829 0.5353 -10.3419 2.4500 0.6778 -15.3117 -6.7986 -13.7098 -11.4796 13.9616 -17.8411 1.0025 3.8658 -8.1164 4.0395 0.0000 0.0000 0.0000 -32.1133 -5.7820 63.3390 131.8718 -52.2121 -95.3130 -0.0000 0.0000 -16.4381 58.1705 6.7320 10.6943 -7.1250 0.0000 -0.0000 27.6766 40.8234 -3.1260 0.0000 0.0000 0.0000 -8.3393 22.5067 -41.9045 -26.1752 37.3812 -8.9938 0.0000 0.0000 9.8315 -64.8396 31.2958 -47.8784 7.1250 -0.0000 -0.0000 -17.6313 22.9869 -23.9543
0.00 0.00 0.00 -176.1200 7.4218 -171.7620 0.0000 0.0000 0.0000 -8.7867 13.4753 -27.4372 13.9247 19.0910 71.9742 1.5697 1.0807 -24.0978 0.7082 -5.3786 -14.9915 0.0000 0.0000 0.0000 23.4764 -9.1413 -46.4136 -8.4066 -16.4103 54.0144 -1.0682 0.7467 -19.3048 -0.2631 -3.2996 9.1139 3.4546 -0.0900 8.8841 4.4486 2.1050 -10.2059 2.5196 1.3503 -16.6349 -5.6095 -13.5435 -11.5902 14.4701 -17.1315 -2.9802 4.0523 -7.8261 2.7394 -0.0000 0.0000 0.0000 -34.4101 -6.2512 61.5970 135.8191 -50.3608 -98.3939 -0.0000 0.0000 -32.0565 50.0031 16.3124 18.5090 -7.1250 0.0000 -0.0000 23.6442 52.8675 4.7916 -0.0000 0.0000 0.0000 -10.3538 27.7610 -52.3734 -27.8253 38.9549 -10.0137 0.0000 -0.0000 -9.9561 -57.8234 25.8103 -34.6840 7.1250 -0.0000 -0.0000 -15.8160 10.8753 -19.1877
0.00 0.00 0.00 -173.6090 8.5189 -169.6930 0.0000 0.0000 0.0000 -21.6231 17.8133 -36.6845 18.2692 19.9280 84.9336 -0.0865 -14.7095 -9.3175 1.8797 -8.6109 -24.5857 0.0000 0.0000 0.0000 27.8914 -6.3537 -45.8220 -7.9364 -16.0723 52.3334 -1.0115 0.5058 -18.8513 -0.3098 -3.5784 9.8936 5.8959 -0.0762 9.2634 6.4589 3.1472 -10.0166 3.1882 1.8350 -16.7942 -4.5780 -12.9601 -12.1345 16.2680 -15.9662 -5.3234 4.5871 -7.1890 2.1183 0.0000 -0.0000 0.0000 -34.1881 -8.3959 57.6237 138.5338 -48.9150 -100.4627 -0.0000 0.0000 -59.0672 28.3251 30.7108 15.3909 -7.1250 0.0000 -0.0000 -3.8743 63.9515 -1.7808 0.0000 -0.0000 0.0000 -10.8192 36.2488 -61.3488 -34.0257 44.1038 -14.1310 0.0000 -0.0000 -50.2383 -40.1443 5.3951 -4.5341 7.1250 -0.0000 -0.0000 -9.8726 -22.9619 -5.3157
0.00 0.00 0.00 -174.1870 6.0123 -167.6660 0.0000 0.0000 0.0000 -35.2318 12.9028 -31.7720 8.8796 16.7296 55.6727 -0.2903 -9.5886 2.1375 0.0042 0.4170 1.1458 0.0000 0.0000 0.0000 28.7372 -5.3298 -47.7046 -8.2499 -16.3000 53.4577 -0.9754 -0.4712 -18.8437 -0.2778 -3.3898 9.3660 4.1203 -1.1848 7.0438 7.8246 1.3627 -9.5840 6.0842 1.3773 -14.8407 -5.3276 -13.2286 -12.3159 19.1570 -16.3633 -4.5252 5.4506 -7.2103 2.7952 -0.0000 0.0000 0.0000 -31.0712 -12.0537 56.1279 137.4890 -49.4892 -99.6718 -0.0000 0.0000 -76.1982 13.0300 39.1903 8.3196 -7.1250 0.0000 -0.0000 -30.5303 67.5511 -17.1886 -0.0000 0.0000 0.0000 -3.2576 37.2995 -51.5109 -39.7663 47.9308 -18.2656 0.0000 -0.0000 -83.4503 -31.2740 -19.1708 11.2800 7.1250 -0.0000 -0.0000 -3.1103 -52.0887 0.5432
0.00 0.00 0.00 -174.0660 3.9227 -166.7210 0.0000 0.0000 0.0000 -37.4816 9.3573 -19.8608 4.3394 12.5988 37.8847 0.4715 -0.1272 -12.9297 0.0008 -0.1799 -0.4944 0.0000 0.0000 0.0000 26.4923 3.2611 -50.8442 -10.5361 -17.7005 61.2655 -0.7033 -1.4738 -16.4420 -0.2874 -3.4475 9.5273 -0.3857 -2.4355 5.3336 8.9157 -1.2988 -8.0699 10.2248 0.4210 -11.5824 -5.0426 -12.0475 -13.0890 20.9834 -16.2368 3.0419 5.8034 -6.5446 5.3621 0.0000 -0.0000 0.0000 -23.9821 -17.2082 57.5075 135.9222 -50.3086 -98.4732 -0.0000 0.0000 -63.8223 0.5220 38.1885 0.3228 -7.1250 0.0000 -0.0000 -41.9077 63.2110 -20.2984 0.0000 -0.0000 0.0000 10.7510 30.3394 -15.8699 -58.8626 55.9992 -33.3964 0.0000 -0.0000 -89.8816 -32.7534 -34.5363 20.0373 7.1250 -0.0000 -0.0000 0.1897 -69.2739 -0.1103
0.00 0.00 0.00 -173.1290 -0.9867 -166.8520 0.0000 0.0000 0.0000 -32.2977 10.1731 -25.6412 7.6367 15.8454 51.2434 0.2731 -5.3596 -9.4621 0.4120 -4.1203 -11.4153 0.0000 0.0000 0.0000 27.9138 5.1271 -46.6792 -8.4623 -16.4490 54.2112 -1.4267 -0.6221 -22.8192 -0.7998 -5.7079 15.9392 -1.1685 -2.4441 3.9465 9.0908 -3.9019 -7.4534 11.1812 -1.9178 -9.5129 -5.9618 -11.9058 -14.6873 22.6633 -17.2819 9.8523 6.3199 -6.2337 8.2190 0.0000 -0.0000 0.0000 -24.0247 -19.5262 64.1971 134.4253 -51.0470 -97.3152 -0.0000 0.0000 -32.7031 13.7110 24.4636 5.7693 -7.1250 0.0000 -0.0000 -16.5730 54.3011 -3.8688 0.0000 -0.0000 0.0000 16.7098 19.8204 12.1705 -97.0117 59.8134 -66.0685 0.0000 -0.0000 -81.7578 -28.6142 -37.0778 18.2063 7.1250 -0.0000 -0.0000 8.4327 -70.5392 -5.1535
0.00 0.00 0.00 -170.7000 -4.0146 -169.6140 0.0000 0.0000 0.0000 -23.5681 11.3688 -33.3157 13.4104 18.9253 70.3953 0.0943 -5.5816 -6.2728 1.7800 -8.3920 -23.9113 0.0000 0.0000 0.0000 31.6398 2.2440 -44.1038 -8.4874 -16.4663 54.2998 -1.4816 -1.1658 -23.4555 -0.7932 -5.6849 15.8729 -0.9730 -2.7951 5.2380 9.4648 -4.2277 -6.0345 11.4950 -2.0966 -8.6221 -5.9276 -11.5655 -15.1186 22.5501 -17.4557 13.8286 6.3516 -5.8997 9.6511 -0.0000 0.0000 0.0000 -24.3403 -23.0970 69.9784 128.6988 -53.5070 -92.7832 -0.0000 0.0000 -7.5227 25.0480 7.9242 3.6863 -7.1250 0.0000 -0.0000 -1.5512 38.7101 0.2404 -0.0000 0.0000 0.0000 19.0035 15.3021 28.2878 -115.4160 57.4126 -81.8197 0.0000 -0.0000 -67.1675 -22.9032 -30.7790 12.1994 7.1250 -0.0000 -0.0000 10.4558 -62.5691 -4.4895
0.00 0.00 0.00 -167.7810 -6.7461 -174.6520 0.0000 0.0000 0.0000 -10.3044 10.1510 -40.1136 17.8251 19.8862 83.6294 0.8911 7.0011 -21.6939 0.0045 0.4341 1.1929 0.0000 0.0000 0.0000 35.9890 -2.7592 -39.5621 -8.6646 -16.5869 54.9227 -1.8491 -1.3798 -26.2377 -0.6347 -5.0973 14.1862 -2.0207 -2.5868 7.1489 9.3762 -3.8841 -4.3339 11.9953 -1.8591 -7.8870 -5.4194 -10.7707 -17.2404 21.5168 -17.3393 21.4690 6.2628 -4.9489 12.7171 0.0000 0.0000 0.0000 -24.2264 -26.4387 76.4256 117.6386 -56.9070 -83.6872 -0.0000 -0.0000 10.8247 37.8147 -10.6638 -8.1725 -7.1250 0.0000 -0.0000 7.4537 16.6457 -5.0495 0.0000 0.0000 0.0000 21.6164 13.3972 49.5415 -121.5221 55.8905 -86.9223 0.0000 -0.0000 -28.4860 -28.5973 -9.0623 4.9077 7.1250 -0.0000 -0.0000 -1.4706 -40.2717 -0.1715
0.00 0.00 0.00 -167.2220 -11.1729 -179.3610 0.0000 0.0000 0.0000 3.4691 6.7528 -54.8427 10.9065 17.8890 62.4776 1.6605 9.0589 -29.0700 0.0986 2.0250 5.5749 0.0000 0.0000 0.0000 36.4688 -8.6298 -30.7142 -7.6289 -15.8394 51.2145 -2.2686 -3.4571 -29.8545 -0.6296 -5.0770 14.1284 -1.6635 -0.1806 7.2470 4.5506 -0.2815 -3.6595 5.8322 0.0059 -7.9225 0.1890 1.2069 -19.3026 19.6195 -5.9414 22.9452 6.2119 -1.1361 11.4968 0.0000 -0.0000 0.0000 -17.2111 -23.8361 47.8152 86.7139 -59.9592 -57.1545 -0.0000 -0.0000 10.3749 70.7069 -24.7721 -50.1232 -7.1250 0.0000 -0.0000 23.0772 -20.9355 -31.8229 0.0000 -0.0000 0.0000 29.1701 11.0517 66.5238 -118.5357 56.6877 -84.4378 0.0000 0.0000 11.6511 -52.9855 27.0278 -31.0783 7.1250 -0.0000 -0.0000 -12.8731 9.4074 -15.1602
0.00 0.00 0.00 -171.0830 -9.2616 -177.6330 0.0000 0.0000 0.0000 4.7874 -7.7057 -30.5874 1.4360 7.5766 21.4353 3.7172 19.9809 -47.0673 0.7440 5.5097 15.3683 0.0000 0.0000 0.0000 28.0676 -7.7406 -19.0977 -4.8937 -13.2630 40.3612 -1.5188 -6.1893 -26.2321 -0.1905 -2.8106 7.7518 0.3937 3.1233 2.7391 1.6655 4.0440 -6.3716 1.1491 1.8929 -8.3140 7.7677 11.5036 -15.1330 11.7360 10.7175 18.9307 3.9011 6.5676 8.2320 -0.0000 0.0000 0.0000 -10.9789 -34.9675 0.0590 44.8858 -50.7124 -22.1504 -0.0000 0.0000 -40.6154 33.1928 16.9080 10.7726 -7.1250 0.0000 -0.0000 5.3221 49.8685 0.6404 -0.0000 0.0000 0.0000 27.2493 5.2624 68.3265 -113.5131 57.8043 -80.2128 0.0000 0.0000 13.7523 -58.7861 30.5906 -40.0247 7.1250 -0.0000 -0.0000 -14.7562 17.4257 -19.0188
0.00 0.00 0.00 -175.5500 -12.0739 -174.2820 0.0000 0.0000 0.0000 -9.8514 7.7785 -43.4069 2.6181 10.0496 29.1375 1.5468 15.5731 -33.5230 0.2455 -3.1882 -8.8031 0.0000 0.0000 0.0000 20.7366 -9.2499 -19.3442 -4.6478 -12.9758 39.2779 -1.4673 -9.1013 -27.7824 -0.0425 -1.3306 3.6589 -1.0703 3.1614 3.6071 -0.2036 3.6537 -8.6308 -0.0670 1.6344 -11.3087 7.8850 13.5888 -13.9876 6.6611 15.3530 15.8882 2.5367 8.3428 7.2604 -0.0000 0.0000 0.0000 -3.3330 -39.7683 -22.2138 27.7525 -38.8874 -9.9679 -0.0000 0.0000 -62.2201 -3.2101 27.7682 -1.4968 -7.1250 0.0000 -0.0000 -34.9017 54.1234 -8.6293 -0.0000 0.0000 0.0000 29.5390 4.2054 69.1946 -111.9091 58.1062 -78.8532 0.0000 -0.0000 -1.6175 -47.5199 29.1152 -27.9846 7.1250 -0.0000 -0.0000 -9.3251 9.0699 -10.8115
0.00 0.00 0.00 -170.4750 -13.2104 -175.5120 0.0000 0.0000 0.0000 -2.8008 5.5174 -49.2051 6.5081 14.9033 46.9883 1.6203 0.9712 -24.4365 1.2312 -7.0368 -19.8244 0.0000 0.0000 0.0000 24.0291 -12.2878 -18.3819 -4.3203 -12.5748 37.7971 -1.4255 -8.1988 -26.8509 -0.0133 0.7434 -2.0429 6.1757 3.6706 4.2470 0.5920 5.1254 -8.7202 -3.4415 1.7392 -11.2674 8.0914 13.7680 -14.0357 4.4951 16.0403 15.6595 1.9191 8.5046 7.3868 0.0000 -0.0000 0.0000 -2.9530 -38.8141 -17.8873 26.0785 -37.2861 -8.9352 -0.0000 0.0000 -53.6517 -20.5705 23.4704 -8.5010 -7.1250 0.0000 -0.0000 -46.3672 47.8192 -4.0712 0.0000 -0.0000 0.0000 31.7731 5.8326 68.2782 -109.6855 58.4839 -76.9614 0.0000 -0.0000 -18.1059 -9.5193 11.4205 -1.9017 7.1250 -0.0000 -0.0000 12.3246 -18.5489 7.9495
0.00 0.00 0.00 -172.8080 -7.4717 -175.4310 0.0000 0.0000 0.0000 -4.2474 3.4285 -42.0028 7.4827 15.7253 50.6773 0.7741 -8.6279 -15.9154 0.1343 -2.3621 -6.5075 0.0000 0.0000 0.0000 18.0315 -10.2010 -17.4355 -4.9415 -13.3176 40.5692 -1.6543 -5.8888 -27.0255 -0.0201 0.9158 -2.5170 4.6521 5.0814 4.6974 -0.2987 6.8320 -9.0148 -3.8275 2.6208 -11.7561 8.6870 14.4342 -14.0729 4.0498 16.9186 15.6460 1.8175 8.9173 7.4907 0.0000 0.0000 0.0000 0.0939 -32.6301 -11.9345 27.2176 -38.3859 -9.6340 -0.0000 0.0000 -21.5805 -35.1336 16.0387 -11.0022 -7.1250 0.0000 -0.0000 -50.3074 39.6688 9.7547 0.0000 0.0000 0.0000 36.0270 12.1794 69.1475 -105.0493 59.1267 -72.9949 0.0000 -0.0000 -6.3153 29.5147 -9.7159 -5.4574 7.1250 -0.0000 -0.0000 43.7740 -35.4434 13.9680
0.00 0.00 0.00 -176.0340 -0.7155 -173.9830 0.0000 0.0000 0.0000 -10.0817 4.0787 -40.2137 7.3589 15.6268 50.2191 0.8143 -1.5414 -16.5986 0.0041 0.4148 1.1398 0.0000 0.0000 0.0000 13.2987 -4.7741 -20.7257 -6.7977 -15.1591 48.1049 -1.4576 -8.2209 -27.0969 -0.1306 -2.3290 6.4159 2.0728 6.4574 5.2347 -2.2685 8.1230 -9.9042 -4.8527 3.2438 -13.0598 8.4275 14.9026 -14.0572 2.8885 17.9237 12.3204 1.4364 9.2690 6.4845 0.0000 0.0000 0.0000 4.8971 -26.3053 -15.2880 29.2534 -40.2448 -10.9240 -0.0000 -0.0000 18.9357 -13.9895 10.8972 -2.6965 -7.1250 0.0000 -0.0000 -34.3225 38.4306 6.4993 0.0000 0.0000 0.0000 42.8503 17.9822 74.3847 -101.6207 59.4835 -70.0463 0.0000 0.0000 20.8613 13.3080 -4.3391 -1.0253 7.1250 -0.0000 -0.0000 31.3625 -32.7999 10.8389
